<?xml version="1.0" encoding="UTF-8"?>
<!DOCTYPE svg PUBLIC "-//W3C//DTD SVG 1.1//EN" "http://www.w3.org/Graphics/SVG/1.1/DTD/svg11.dtd">
<svg xmlns="http://www.w3.org/2000/svg" xmlns:xlink="http://www.w3.org/1999/xlink" version="1.1" width="157" height="157" viewBox="-0.5 -0.5 157 157"><defs><filter id="dropShadow"><feGaussianBlur in="SourceAlpha" stdDeviation="1.7" result="blur"/><feOffset in="blur" dx="3" dy="3" result="offsetBlur"/><feFlood flood-color="#3D4574" flood-opacity="0.4" result="offsetColor"/><feComposite in="offsetColor" in2="offsetBlur" operator="in" result="offsetBlur"/><feBlend in="SourceGraphic" in2="offsetBlur"/></filter></defs><g filter="url(#dropShadow)"><rect x="0" y="0" width="150" height="150" fill="none" stroke="none" pointer-events="all"/><path d="M 27.61 85.04 C 28.95 86.37 28.95 88.53 27.61 89.86 C 26.95 90.53 26.08 90.86 25.2 90.86 C 24.33 90.86 23.45 90.53 22.79 89.86 L 13.45 80.53 C 12.12 79.19 12.12 77.03 13.45 75.7 L 22.79 66.36 C 24.12 65.03 26.28 65.03 27.61 66.36 C 28.95 67.7 28.95 69.86 27.61 71.19 L 24.1 74.7 L 40.76 74.7 L 40.76 81.53 L 24.11 81.53 Z M 136.55 80.53 L 127.22 89.86 C 126.55 90.53 125.67 90.86 124.8 90.86 C 123.93 90.86 123.05 90.53 122.39 89.86 C 121.05 88.53 121.05 86.37 122.39 85.04 L 125.9 81.53 L 121.69 81.53 L 121.69 74.7 L 125.9 74.7 L 122.39 71.19 C 121.05 69.86 121.05 67.7 122.39 66.36 C 123.72 65.03 125.88 65.03 127.22 66.36 L 136.55 75.7 C 137.89 77.03 137.89 79.19 136.55 80.53 Z M 109.24 81.53 L 118.57 81.53 L 118.57 74.7 L 109.24 74.7 Z M 96.28 41.43 L 89.68 48.03 L 84.85 43.21 L 91.45 36.61 Z M 80.92 59.44 L 87.75 59.44 L 87.75 50.1 L 80.92 50.1 Z M 80.92 71.89 L 87.75 71.89 L 87.75 62.55 L 80.92 62.55 Z M 80.92 84.34 L 87.75 84.34 L 87.75 75 L 80.92 75 Z M 80.92 96.79 L 87.75 96.79 L 87.75 87.45 L 80.92 87.45 Z M 80.92 109.24 L 87.75 109.24 L 87.75 99.9 L 80.92 99.9 Z M 80.92 121.69 L 87.75 121.69 L 87.75 112.35 L 80.92 112.35 Z M 99.6 34.84 L 81.29 34.84 L 81.29 28.01 L 106.43 28.01 L 106.43 53.22 L 99.6 53.22 Z M 55.23 34.84 L 69.08 48.69 L 69.08 121.69 L 62.25 121.69 L 62.25 51.52 L 50.46 39.73 L 50.46 53.22 L 43.63 53.22 L 43.63 28.01 L 68.78 28.01 L 68.78 34.84 Z M 108.94 93.68 L 115.76 93.68 L 115.76 115.76 L 93.68 115.76 L 93.68 108.94 L 104.11 108.94 L 97.49 102.31 L 102.31 97.49 L 108.94 104.11 Z M 114.72 61.9 L 109.89 57.07 L 119.27 47.69 L 124.1 52.52 Z M 97.49 69.47 L 106.73 60.23 L 111.56 65.06 L 102.31 74.3 Z M 96.49 84.34 L 103.31 84.34 L 103.31 75.18 L 96.49 75.18 Z M 96.49 96.79 L 103.31 96.79 L 103.31 87.73 L 96.49 87.73 Z M 45.89 108.94 L 56.32 108.94 L 56.32 115.76 L 34.24 115.76 L 34.24 93.68 L 41.06 93.68 L 41.06 104.11 L 46.69 98.49 L 46.69 73.3 L 25.9 52.52 L 30.73 47.69 L 53.52 70.47 L 53.52 101.32 Z M 75 143.17 C 37.41 143.17 6.83 112.59 6.83 75 C 6.83 37.41 37.41 6.83 75 6.83 C 112.59 6.83 143.17 37.41 143.17 75 C 143.17 112.59 112.59 143.17 75 143.17 Z M 75 0 C 33.65 0 0 33.65 0 75 C 0 116.36 33.65 150 75 150 C 116.35 150 150 116.36 150 75 C 150 33.65 116.35 0 75 0 Z" fill="#4895ef" stroke="none" pointer-events="all"/></g></svg>