<svg width="512" height="180" xmlns="http://www.w3.org/2000/svg" class="fl-svgdocument">
 <defs transform="matrix(1.5780200958251953, 0, 0, 1.5780200958251953, -142.33811950683594, 2.228728771209717)" id="_kUKYqUbavoIVScfN5ZMPl">
  <linearGradient y2="0.5" x2="1" y1="0.5" x1="0" id="linearGradientSke8mc8dc794">
   <stop stop-opacity="0.54" stop-color="#61c78c" offset="0%" id="_-hFu48ahonb-zjcsq32pY"/>
   <stop stop-opacity="0.54" stop-color="#61c78c" offset="100%" id="_LYe0wNvW1dV2rkf8SXDbW"/>
  </linearGradient>
  <linearGradient y2="0.5" x2="1" y1="0.5" x1="0" id="linearGradientSke8mc8dc79a">
   <stop stop-opacity="0.53" stop-color="#33b5cc" offset="0%" id="_dUlq_yZY77ua8IA9h7gZm"/>
   <stop stop-opacity="0.53" stop-color="#33b5cc" offset="100%" id="_RlHhXWX8M4aKm2JFNKsJ8"/>
  </linearGradient>
  <linearGradient y2="0.5" x2="1" y1="0.5" x1="0" id="linearGradientSke8mc8dc79g">
   <stop stop-opacity="0.53" stop-color="#5accc2" offset="0%" id="_EvjGV52iHX-f8-WdfZ489"/>
   <stop stop-opacity="0.53" stop-color="#5accc2" offset="100%" id="_Lmpl-hNvOMPymZsP-n9L4"/>
  </linearGradient>
  <linearGradient y2="0.5" x2="0" y1="0.5" x1="1" id="svg_1">
   <stop stop-opacity="0.54" stop-color="#74d14c" offset="0%" id="_0vL9j3uBHszkYbuKwuGyl"/>
   <stop stop-opacity="0.54" stop-color="#74d14c" offset="100%" id="_dcBx2dYlTFeyZe4q8NHMs"/>
  </linearGradient>
 </defs>
 <g>
  <title>Layer 1</title>
  <g transform="matrix(0.690166 0 0 0.692113 -117.989 -23.4346)" id="_62xLwANduGTY0AnIuSX2r">
   <path fill="url(#svg_1)" d="m253.04489,277.40503c11.08987,-0.19323 19.91968,-9.34421 19.72649,-20.43211c-0.29991,-17.21284 8.15268,-25.96521 25.36946,-26.26519c17.20693,-0.29981 25.97115,8.15455 26.27103,25.36542c0.19319,11.08791 9.33643,19.92572 20.42631,19.7325s19.91968,-9.34421 19.72649,-20.43211c-0.19323,-11.08987 -9.33647,-19.92769 -20.42634,-19.73447c-17.21678,0.29998 -25.97115,-8.15455 -26.27113,-25.37133c-0.19323,-11.08987 -9.33633,-19.91982 -20.42817,-19.72655c-11.08791,0.19319 -19.93163,9.33653 -19.73841,20.42641c0.29998,17.21678 -8.15258,25.97112 -25.35754,26.27089c-11.10169,0.19343 -19.9315,9.34441 -19.73827,20.43429c0.19319,11.08791 9.3384,19.92569 20.44009,19.73226z" clip-rule="evenodd" fill-rule="evenodd" id="_Et9Jd8x5GnV205iHKGYJy"/>
   <path fill="url('#linearGradientSke8mc8dc794')" d="m343.18952,145.64623c-11.0916,0 -20.07952,8.9958 -20.07952,20.08543c0,17.21552 -8.60382,25.81934 -25.82328,25.81934c-17.20961,0 -25.82525,-8.60579 -25.82525,-25.81934c0,-11.08963 -8.98792,-20.08543 -20.07952,-20.08543s-20.07952,8.9958 -20.07952,20.08543c0,11.0916 8.98792,20.0874 20.07952,20.0874c17.21946,0 25.82525,8.60579 25.82525,25.82525c0,11.0916 8.98792,20.07952 20.08149,20.07952c11.08963,0 20.09134,-8.98792 20.09134,-20.07952c0,-17.21946 8.60382,-25.82525 25.81146,-25.82525c11.10342,0 20.09134,-8.9958 20.09134,-20.0874c0,-11.08963 -8.98989,-20.08543 -20.09331,-20.08543z" clip-rule="evenodd" fill-rule="evenodd" id="_TnvFaCpgbUGY0RxVYO-a4"/>
   <path fill="url('#linearGradientSke8mc8dc79a')" d="m269.58193,164.79053c-0.38732,-11.0847 -9.69138,-19.75289 -20.77411,-19.36565c-17.20481,0.60116 -26.10372,-7.69686 -26.70502,-24.9056c-0.60096,-17.1989 7.69862,-26.10969 24.90146,-26.71079c11.08273,-0.38725 19.75907,-9.68371 19.37176,-20.76841s-9.69138,-19.75289 -20.77411,-19.36565c-11.0847,0.38732 -19.76104,9.68378 -19.37373,20.76848c0.6013,17.20874 -7.69862,26.10969 -24.90737,26.711c-11.0847,0.38732 -19.75317,9.6835 -19.36578,20.77017c0.38725,11.08273 9.68391,19.76498 20.76861,19.37766c17.20874,-0.6013 26.10962,7.69665 26.71051,24.89359c0.38773,11.09651 9.69179,19.76471 20.77649,19.37739c11.08273,-0.38725 19.75901,-9.68568 19.37128,-20.78219z" clip-rule="evenodd" fill-rule="evenodd" id="_iTYV7qm-8bzYSiCWJ8dMw"/>
   <path fill="url('#linearGradientSke8mc8dc79g')" d="m271.03013,257.10208c0,-11.0916 -8.9958,-20.07952 -20.08543,-20.07952c-17.21552,0 -25.81934,-8.60382 -25.81934,-25.82328c0,-17.20961 8.60579,-25.82525 25.81934,-25.82525c11.08963,0 20.08543,-8.98792 20.08543,-20.07952s-8.9958,-20.07952 -20.08543,-20.07952c-11.0916,0 -20.0874,8.98792 -20.0874,20.07952c0,17.21946 -8.60579,25.82525 -25.82525,25.82525c-11.0916,0 -20.07952,8.98792 -20.07952,20.08149c0,11.08963 8.98792,20.09134 20.07952,20.09134c17.21946,0 25.82525,8.60382 25.82525,25.81146c0,11.10342 8.9958,20.09134 20.0874,20.09134c11.08963,0 20.08543,-8.98989 20.08543,-20.09331z" clip-rule="evenodd" fill-rule="evenodd" id="_5nDZzyVJrxnzkwt5atHt8"/>
  </g>
  <path d="m160.95745,113.72007l-9.5341,0l12.78682,-42.14923l11.3484,0l12.729,42.14923l-9.75095,0l-7.1054,-27.07738l-1.59745,-6.64368l-0.11565,0l-1.4818,6.57665l-7.27888,27.1444zm19.01037,-9.5173l-20.21749,0l0,-7.47309l20.21749,0l0,7.47309zm27.00101,10.15402l0,0q-4.5755,0 -7.90774,-1.97718q-3.33224,-1.97718 -5.15376,-5.6886q-1.8143,-3.70303 -1.8143,-8.93922l0,0q0,-5.23619 1.8143,-8.93922q1.82153,-3.70303 5.09594,-5.68022q3.28164,-1.98556 7.52464,-1.98556l0,0q4.35142,0 7.40898,1.95205q3.05756,1.94367 4.65501,5.36186q1.60468,3.41818 1.60468,7.82496l0,0q0,1.14777 -0.05783,2.29555q-0.05783,1.15615 -0.16625,1.91854l0,0l-21.82217,0l0,-5.81426l17.68759,0l-4.45985,1.98556q0,-3.83708 -1.18544,-5.88129q-1.18544,-2.04421 -3.66474,-2.04421l0,0q-1.7637,0 -2.99974,0.96346q-1.24326,0.95508 -1.87935,2.99929q-0.62886,2.04421 -0.62886,5.23619l0,0q0,3.13334 0.7156,5.07701q0.7156,1.95205 2.03837,2.81498q1.32277,0.85455 3.1949,0.85455l0,0q2.0962,0 3.33224,-0.95508q1.24326,-0.95508 1.85044,-2.68093l0,0l7.4885,2.87362q-0.7662,2.74795 -2.66723,4.63298q-1.90104,1.88503 -4.51767,2.84011q-2.62386,0.95508 -5.48626,0.95508zm29.47991,-0.63672l-9.36785,0l0,-31.93656l8.26192,0l0.39033,6.90339q1.0481,-3.57736 3.11539,-5.55455q2.06006,-1.98556 5.26219,-1.98556l0,0q1.04087,0 1.78538,0.19269q0.74451,0.19269 1.18544,0.51105l0,0l-0.93245,8.93922q-0.55658,-0.25134 -1.40951,-0.41052q-0.85294,-0.15918 -2.06729,-0.15918l0,0q-1.64805,0 -3.08647,0.82941q-1.4312,0.82941 -2.28414,2.45473q-0.85294,1.63369 -0.85294,4.12193l0,0l0,16.09395zm31.35327,-11.81284l0,-8.42817q0,-2.2369 -1.07701,-3.55223q-1.06979,-1.30695 -2.89131,-1.30695l0,0q-1.82153,0 -3.11539,1.05562q-1.29386,1.05562 -1.78538,3.73654l0,0l-7.93665,-2.16988q0.77343,-4.59947 4.07675,-7.34742q3.30332,-2.74795 9.31002,-2.74795l0,0q4.02615,0 6.85964,1.37398q2.84071,1.37398 4.35142,4.08842q1.51794,2.71444 1.51794,6.67719l0,0l0,11.68717q0,2.48824 1.92995,2.48824l0,0q0.99027,0 1.59745,-0.25971l0,0l-0.54935,6.19965q-1.65528,0.89644 -4.02615,0.89644l0,0q-2.1468,0 -3.80207,-0.80428q-1.64805,-0.7959 -2.58772,-2.42121q-0.93968,-1.63369 -0.93968,-4.12193l0,0l0,-0.38538l1.0481,-0.44403q0,2.74795 -1.40229,4.59947q-1.40951,1.85152 -3.63582,2.74795q-2.23354,0.88806 -4.65501,0.88806l0,0q-2.8118,0 -4.908,-1.0221q-2.0962,-1.0221 -3.22381,-2.96578q-1.12761,-1.95205 -1.12761,-4.82567l0,0q0,-3.44332 1.79261,-5.71373q1.78538,-2.27041 5.64528,-3.15847l0,0l10.41595,-2.49661l-0.05783,5.74724l-5.2911,1.28182q-1.64805,0.38538 -2.45039,1.11426q-0.79511,0.73726 -0.79511,2.20339l0,0q0,1.40749 0.88185,2.11123q0.88185,0.70374 2.08897,0.70374l0,0q0.93968,0 1.79261,-0.31836q0.85294,-0.32674 1.51794,-0.99697q0.65777,-0.67023 1.04087,-1.69234q0.39033,-1.0221 0.39033,-2.42121l0,0zm38.01647,-20.12372l10.41595,0l-13.22052,16.35367l-1.7637,0.57808l-7.88605,10.21266l-0.0506,-11.1091l12.50492,-16.03531zm-19.83439,-13.53869l9.36785,0l0,45.47525l-9.36785,0l0,-45.47525zm12.3459,29.50697l6.11512,-6.38396l12.3965,22.35224l-10.35812,0l-8.1535,-15.96828zm28.26405,-19.67132l0,0q-2.8624,0 -4.16349,-1.23993q-1.29386,-1.24831 -1.29386,-3.92924l0,0q0,-2.74795 1.29386,-3.99626q1.30109,-1.23993 4.16349,-1.23993l0,0q2.8118,0 4.13457,1.23993q1.32277,1.24831 1.32277,3.99626l0,0q0,2.68093 -1.32277,3.92924q-1.32277,1.23993 -4.13457,1.23993zm-4.68392,3.70303l9.36785,0l0,31.93656l-9.36785,0l0,-31.93656zm64.9089,-10.21266l12.94584,0l0,42.14923l-8.37035,0l0,-19.35295l0.27467,-12.96062l-0.10842,0l-8.98475,32.31357l-7.66197,0l-8.97752,-32.31357l-0.10842,0l0.27467,12.96062l0,19.35295l-8.4354,0l0,-42.14923l13.50242,0l5.73202,21.45581l2.03837,8.93922l0.10842,0l2.0962,-8.8722l5.6742,-21.52283zm35.43035,42.78595l0,0q-4.5755,0 -7.90774,-1.97718q-3.33224,-1.97718 -5.15376,-5.6886q-1.8143,-3.70303 -1.8143,-8.93922l0,0q0,-5.23619 1.8143,-8.93922q1.82153,-3.70303 5.09594,-5.68022q3.28164,-1.98556 7.52464,-1.98556l0,0q4.35142,0 7.40898,1.95205q3.05756,1.94367 4.65501,5.36186q1.60468,3.41818 1.60468,7.82496l0,0q0,1.14777 -0.05783,2.29555q-0.05783,1.15615 -0.16625,1.91854l0,0l-21.82217,0l0,-5.81426l17.68759,0l-4.45985,1.98556q0,-3.83708 -1.18544,-5.88129q-1.18544,-2.04421 -3.66474,-2.04421l0,0q-1.7637,0 -2.99974,0.96346q-1.24326,0.95508 -1.87935,2.99929q-0.62886,2.04421 -0.62886,5.23619l0,0q0,3.13334 0.7156,5.07701q0.7156,1.95205 2.03837,2.81498q1.32277,0.85455 3.1949,0.85455l0,0q2.0962,0 3.33224,-0.95508q1.24326,-0.95508 1.85044,-2.68093l0,0l7.4885,2.87362q-0.7662,2.74795 -2.66723,4.63298q-1.90104,1.88503 -4.51767,2.84011q-2.62386,0.95508 -5.48626,0.95508zm31.68452,0l0,0q-4.13457,0 -7.69089,-1.56667q-3.54908,-1.55829 -5.86213,-4.49893l0,0l4.40202,-6.00696q1.3806,2.04421 3.66474,3.41818q2.29136,1.37398 5.09594,1.37398l0,0q1.7131,0 2.8118,-0.5697q1.10593,-0.57808 1.10593,-1.79287l0,0q0,-0.89644 -0.55658,-1.43262q-0.54935,-0.54456 -2.1974,-0.92995l0,0l-3.8599,-0.89644q-5.18267,-1.20642 -7.35839,-3.6025q-2.17571,-2.39608 -2.17571,-6.2918l0,0q0,-2.62228 1.3806,-5.01836q1.37337,-2.3877 4.243,-3.89572q2.8624,-1.49964 7.32947,-1.49964l0,0q4.18517,0 7.38007,1.40749q3.1949,1.40749 5.06702,4.08842l0,0l-4.45985,5.87291q-1.32277,-1.91854 -3.41898,-2.99929q-2.08897,-1.08913 -4.18517,-1.08913l0,0q-1.32277,0 -2.23354,0.29323q-0.91076,0.28485 -1.35169,0.7959q-0.44092,0.51105 -0.44092,1.27344l0,0q0,0.82941 0.69391,1.441q0.68669,0.60321 2.55881,1.05562l0,0l5.01642,1.14777q4.243,0.89644 6.11512,3.259q1.87212,2.36257 1.87212,5.68022l0,0q0,3.13334 -1.4312,5.62157q-1.4312,2.48824 -4.30083,3.92924q-2.8624,1.43262 -7.21382,1.43262zm28.81736,-0.63672l-9.36785,0l0,-45.47525l9.36785,0l0,19.35295q1.21435,-3.19198 3.46957,-4.81729q2.26245,-1.63369 5.23327,-1.63369l0,0q2.86963,0 4.98751,1.28182q2.12511,1.27344 3.33224,3.76168q1.21435,2.49661 1.21435,6.26667l0,0l0,21.26312l-9.36785,0l0,-18.26383q0,-3.4517 -1.06979,-4.75865q-1.07701,-1.30695 -2.84071,-1.30695l0,0q-1.32277,0 -2.4793,0.76239q-1.15652,0.77077 -1.82153,2.42959q-0.65777,1.65882 -0.65777,4.33975l0,0l0,16.79769z" font-style="normal" path="M-244.1650390625 0C-122.08251953125 0 122.08251953125 0 244.1650390625 0" font-weight="700" y="0" x="0" font-scale="contain" font-family="Work Sans" space="preserve" dy="0" dx="0" offset="0.5" side="left" letter-spacing="3" font-size="100" text-anchor="middle" text="Aeraki Mesh" fill="#3a3a3a" id="_AYvwbDQQ_P5-AJqsfVBLp"/>
 </g>
</svg>