<svg width="110" height="135" xmlns="http://www.w3.org/2000/svg" class="fl-svgdocument">
 <defs transform="matrix(1.5780200958251953, 0, 0, 1.5780200958251953, -142.33811950683594, 2.228728771209717)" id="_kUKYqUbavoIVScfN5ZMPl">
  <linearGradient y2="0.5" x2="1" y1="0.5" x1="0" id="linearGradientSke8mc8dc794">
   <stop stop-opacity="0.54" stop-color="#61c78c" offset="0%" id="_-hFu48ahonb-zjcsq32pY"/>
   <stop stop-opacity="0.54" stop-color="#61c78c" offset="100%" id="_LYe0wNvW1dV2rkf8SXDbW"/>
  </linearGradient>
  <linearGradient y2="0.5" x2="1" y1="0.5" x1="0" id="linearGradientSke8mc8dc79a">
   <stop stop-opacity="0.53" stop-color="#33b5cc" offset="0%" id="_dUlq_yZY77ua8IA9h7gZm"/>
   <stop stop-opacity="0.53" stop-color="#33b5cc" offset="100%" id="_RlHhXWX8M4aKm2JFNKsJ8"/>
  </linearGradient>
  <linearGradient y2="0.5" x2="1" y1="0.5" x1="0" id="linearGradientSke8mc8dc79g">
   <stop stop-opacity="0.53" stop-color="#5accc2" offset="0%" id="_EvjGV52iHX-f8-WdfZ489"/>
   <stop stop-opacity="0.53" stop-color="#5accc2" offset="100%" id="_Lmpl-hNvOMPymZsP-n9L4"/>
  </linearGradient>
  <linearGradient y2="0.5" x2="0" y1="0.5" x1="1" id="svg_1">
   <stop stop-opacity="0.54" stop-color="#74d14c" offset="0%" id="_0vL9j3uBHszkYbuKwuGyl"/>
   <stop stop-opacity="0.54" stop-color="#74d14c" offset="100%" id="_dcBx2dYlTFeyZe4q8NHMs"/>
  </linearGradient>
 </defs>
 <g>
  <title>Layer 1</title>
  <g transform="matrix(0.549926 0 0 0.551477 -94.0138 -15.3439)" id="_62xLwANduGTY0AnIuSX2r">
   <path fill="url(#svg_1)" d="m249.80662,261.51167c11.08987,-0.19323 19.91968,-9.34421 19.72649,-20.43211c-0.29991,-17.21284 8.15268,-25.96521 25.36946,-26.26519c17.20693,-0.29981 25.97115,8.15455 26.27103,25.36542c0.19319,11.08791 9.33643,19.92572 20.42631,19.7325s19.91968,-9.34421 19.72649,-20.43211c-0.19323,-11.08987 -9.33647,-19.92769 -20.42634,-19.73447c-17.21678,0.29998 -25.97115,-8.15455 -26.27113,-25.37133c-0.19323,-11.08987 -9.33633,-19.91982 -20.42817,-19.72655c-11.08791,0.19319 -19.93163,9.33653 -19.73841,20.42641c0.29998,17.21678 -8.15258,25.97112 -25.35754,26.27089c-11.10169,0.19343 -19.9315,9.34441 -19.73827,20.43429c0.19319,11.08791 9.3384,19.92569 20.44009,19.73226z" clip-rule="evenodd" fill-rule="evenodd" id="_Et9Jd8x5GnV205iHKGYJy"/>
   <path fill="url('#linearGradientSke8mc8dc794')" d="m339.95125,129.75286c-11.0916,0 -20.07952,8.9958 -20.07952,20.08543c0,17.21552 -8.60382,25.81934 -25.82328,25.81934c-17.20961,0 -25.82525,-8.60579 -25.82525,-25.81934c0,-11.08963 -8.98792,-20.08543 -20.07952,-20.08543s-20.07952,8.9958 -20.07952,20.08543c0,11.0916 8.98792,20.0874 20.07952,20.0874c17.21946,0 25.82525,8.60579 25.82525,25.82525c0,11.0916 8.98792,20.07952 20.08149,20.07952c11.08963,0 20.09134,-8.98792 20.09134,-20.07952c0,-17.21946 8.60382,-25.82525 25.81146,-25.82525c11.10342,0 20.09134,-8.9958 20.09134,-20.0874c0,-11.08963 -8.98989,-20.08543 -20.09331,-20.08543z" clip-rule="evenodd" fill-rule="evenodd" id="_TnvFaCpgbUGY0RxVYO-a4"/>
   <path fill="url('#linearGradientSke8mc8dc79a')" d="m266.34366,148.89716c-0.38732,-11.0847 -9.69138,-19.75289 -20.77411,-19.36565c-17.20481,0.60116 -26.10372,-7.69686 -26.70502,-24.9056c-0.60096,-17.1989 7.69862,-26.10969 24.90146,-26.71079c11.08273,-0.38725 19.75907,-9.68371 19.37176,-20.76841s-9.69138,-19.75289 -20.77411,-19.36565c-11.0847,0.38732 -19.76104,9.68378 -19.37373,20.76848c0.6013,17.20874 -7.69862,26.10969 -24.90737,26.711c-11.0847,0.38732 -19.75317,9.6835 -19.36578,20.77017c0.38725,11.08273 9.68391,19.76498 20.76861,19.37766c17.20874,-0.6013 26.10962,7.69665 26.71051,24.89359c0.38773,11.09651 9.69179,19.76471 20.77649,19.37739c11.08273,-0.38725 19.75901,-9.68568 19.37128,-20.78219z" clip-rule="evenodd" fill-rule="evenodd" id="_iTYV7qm-8bzYSiCWJ8dMw"/>
   <path fill="url('#linearGradientSke8mc8dc79g')" d="m267.79186,241.20871c0,-11.0916 -8.9958,-20.07952 -20.08543,-20.07952c-17.21552,0 -25.81934,-8.60382 -25.81934,-25.82328c0,-17.20961 8.60579,-25.82525 25.81934,-25.82525c11.08963,0 20.08543,-8.98792 20.08543,-20.07952s-8.9958,-20.07952 -20.08543,-20.07952c-11.0916,0 -20.0874,8.98792 -20.0874,20.07952c0,17.21946 -8.60579,25.82525 -25.82525,25.82525c-11.0916,0 -20.07952,8.98792 -20.07952,20.08149c0,11.08963 8.98792,20.09134 20.07952,20.09134c17.21946,0 25.82525,8.60382 25.82525,25.81146c0,11.10342 8.9958,20.09134 20.0874,20.09134c11.08963,0 20.08543,-8.98989 20.08543,-20.09331z" clip-rule="evenodd" fill-rule="evenodd" id="_5nDZzyVJrxnzkwt5atHt8"/>
  </g>
  <path d="m128.15751,92.71513l-10.76253,0l14.43436,-47.58001l12.8106,0l14.36908,47.58001l-11.00732,0l-8.0209,-30.56621l-1.80327,-7.49969l-0.13055,0l-1.67272,7.42403l-8.21673,30.64187zm21.45979,-10.74357l-22.82244,0l0,-8.43597l22.82244,0l0,8.43597zm30.48,11.46233l0,0q-5.16504,0 -8.92662,-2.23194q-3.76158,-2.23194 -5.81781,-6.42155q-2.04806,-4.18016 -2.04806,-10.09101l0,0q0,-5.91085 2.04806,-10.09101q2.05622,-4.18016 5.75253,-6.41209q3.70447,-2.2414 8.49416,-2.2414l0,0q4.91209,0 8.36361,2.20357q3.45152,2.19411 5.25479,6.05271q1.81143,3.85861 1.81143,8.83318l0,0q0,1.29566 -0.06528,2.59132q-0.06528,1.30512 -0.18767,2.16574l0,0l-24.63388,0l0,-6.56341l19.96658,0l-5.03448,2.2414q0,-4.33147 -1.33818,-6.63907q-1.33818,-2.3076 -4.13692,-2.3076l0,0q-1.99095,0 -3.38624,1.0876q-1.40345,1.07814 -2.1215,3.38574q-0.70989,2.3076 -0.70989,5.91085l0,0q0,3.53706 0.8078,5.73116q0.8078,2.20357 2.30101,3.17768q1.49321,0.96465 3.60655,0.96465l0,0q2.36629,0 3.76158,-1.07814q1.40345,-1.07814 2.08886,-3.02636l0,0l8.45336,3.24388q-0.86492,3.10202 -3.0109,5.22992q-2.14598,2.12791 -5.09976,3.20605q-2.96194,1.07814 -6.19315,1.07814zm33.27829,-0.71876l-10.57486,0l0,-36.05148l9.32644,0l0.44062,7.79287q1.18314,-4.0383 3.51679,-6.27023q2.32549,-2.2414 5.9402,-2.2414l0,0q1.17498,0 2.01542,0.21752q0.84044,0.21752 1.33818,0.5769l0,0l-1.05259,10.09101q-0.62829,-0.28372 -1.59112,-0.46341q-0.96283,-0.17969 -2.33365,-0.17969l0,0q-1.86039,0 -3.48416,0.93628q-1.6156,0.93628 -2.57844,2.77101q-0.96283,1.84419 -0.96283,4.65302l0,0l0,18.1676zm35.39302,-13.33489l0,-9.51411q0,-2.52512 -1.21578,-4.00992q-1.20762,-1.47535 -3.26385,-1.47535l0,0q-2.05622,0 -3.51679,1.19163q-1.46057,1.19163 -2.01542,4.21799l0,0l-8.95926,-2.44946q0.87308,-5.19209 4.60202,-8.29411q3.72894,-3.10202 10.50958,-3.10202l0,0q4.54491,0 7.74347,1.55101q3.20673,1.55101 4.91209,4.6152q1.71352,3.06419 1.71352,7.53752l0,0l0,13.19303q0,2.80884 2.17862,2.80884l0,0q1.11787,0 1.80327,-0.29318l0,0l-0.62013,6.99845q-1.86855,1.01194 -4.54491,1.01194l0,0q-2.42341,0 -4.29196,-0.90791q-1.86039,-0.89845 -2.92114,-2.73318q-1.06075,-1.84419 -1.06075,-4.65302l0,0l0,-0.43504l1.18314,-0.50124q0,3.10202 -1.58297,5.19209q-1.59112,2.09008 -4.10429,3.10202q-2.52132,1.00248 -5.25479,1.00248l0,0q-3.17409,0 -5.54038,-1.1538q-2.36629,-1.1538 -3.63919,-3.34791q-1.2729,-2.20357 -1.2729,-5.44744l0,0q0,-3.88698 2.02358,-6.44992q2.01542,-2.56295 6.37266,-3.56543l0,0l11.758,-2.8183l-0.06528,6.48775l-5.97284,1.44698q-1.86039,0.43504 -2.76611,1.25783q-0.89756,0.83225 -0.89756,2.48729l0,0q0,1.58884 0.99547,2.38326q0.99547,0.79442 2.35813,0.79442l0,0q1.06075,0 2.02358,-0.35938q0.96283,-0.36884 1.71352,-1.12543q0.74252,-0.75659 1.17498,-1.91039q0.44062,-1.1538 0.44062,-2.73318l0,0zm42.91476,-22.7166l11.758,0l-14.92394,18.46078l-1.99095,0.65256l-8.90214,11.52853l-0.05712,-12.54047l14.11613,-18.1014zm-22.38998,-15.28311l10.57486,0l0,51.33459l-10.57486,0l0,-51.33459zm13.93662,33.30885l6.90303,-7.20651l13.99374,25.23226l-11.69273,0l-9.20405,-18.02574zm31.90577,-22.2059l0,0q-3.23121,0 -4.69994,-1.39969q-1.46057,-1.40915 -1.46057,-4.43551l0,0q0,-3.10202 1.46057,-4.51116q1.46873,-1.39969 4.69994,-1.39969l0,0q3.17409,0 4.6673,1.39969q1.49321,1.40915 1.49321,4.51116l0,0q0,3.02636 -1.49321,4.43551q-1.49321,1.39969 -4.6673,1.39969zm-5.28743,4.18016l10.57486,0l0,36.05148l-10.57486,0l0,-36.05148zm73.27217,-11.52853l14.61387,0l0,47.58001l-9.44883,0l0,-21.84652l0.31007,-14.63055l-0.12239,0l-10.1424,36.47706l-8.64919,0l-10.13424,-36.47706l-0.12239,0l0.31007,14.63055l0,21.84652l-9.52227,0l0,-47.58001l15.24216,0l6.47057,24.22032l2.30101,10.09101l0.12239,0l2.36629,-10.01535l6.4053,-24.29598zm39.99542,48.29877l0,0q-5.16504,0 -8.92662,-2.23194q-3.76158,-2.23194 -5.81781,-6.42155q-2.04806,-4.18016 -2.04806,-10.09101l0,0q0,-5.91085 2.04806,-10.09101q2.05622,-4.18016 5.75253,-6.41209q3.70447,-2.2414 8.49416,-2.2414l0,0q4.91209,0 8.36361,2.20357q3.45152,2.19411 5.25479,6.05271q1.81143,3.85861 1.81143,8.83318l0,0q0,1.29566 -0.06528,2.59132q-0.06528,1.30512 -0.18767,2.16574l0,0l-24.63388,0l0,-6.56341l19.96658,0l-5.03448,2.2414q0,-4.33147 -1.33818,-6.63907q-1.33818,-2.3076 -4.13692,-2.3076l0,0q-1.99095,0 -3.38624,1.0876q-1.40345,1.07814 -2.1215,3.38574q-0.70989,2.3076 -0.70989,5.91085l0,0q0,3.53706 0.8078,5.73116q0.8078,2.20357 2.30101,3.17768q1.49321,0.96465 3.60655,0.96465l0,0q2.36629,0 3.76158,-1.07814q1.40345,-1.07814 2.08886,-3.02636l0,0l8.45336,3.24388q-0.86492,3.10202 -3.0109,5.22992q-2.14598,2.12791 -5.09976,3.20605q-2.96194,1.07814 -6.19315,1.07814zm35.76696,0l0,0q-4.6673,0 -8.68183,-1.76853q-4.00637,-1.75907 -6.61745,-5.07861l0,0l4.96921,-6.78093q1.55849,2.3076 4.13692,3.85861q2.5866,1.55101 5.75253,1.55101l0,0q1.93383,0 3.17409,-0.6431q1.24842,-0.65256 1.24842,-2.02388l0,0q0,-1.01194 -0.62829,-1.61721q-0.62013,-0.61473 -2.48052,-1.04977l0,0l-4.35723,-1.01194q-5.85044,-1.36186 -8.30649,-4.06667q-2.45604,-2.70481 -2.45604,-7.10248l0,0q0,-2.96016 1.55849,-5.66496q1.55033,-2.69535 4.78969,-4.39768q3.23121,-1.69287 8.27385,-1.69287l0,0q4.72442,0 8.33097,1.58884q3.60655,1.58884 5.71989,4.6152l0,0l-5.03448,6.62961q-1.49321,-2.16574 -3.8595,-3.38574q-2.35813,-1.22946 -4.72442,-1.22946l0,0q-1.49321,0 -2.52132,0.33101q-1.02811,0.32155 -1.52585,0.89845q-0.49774,0.5769 -0.49774,1.43752l0,0q0,0.93628 0.78332,1.62667q0.77516,0.68093 2.8885,1.19163l0,0l5.66277,1.29566q4.78969,1.01194 6.90303,3.67892q2.11334,2.66698 2.11334,6.41209l0,0q0,3.53706 -1.6156,6.34589q-1.6156,2.80884 -4.85497,4.43551q-3.23121,1.61721 -8.1433,1.61721zm32.53038,-0.71876l-10.57486,0l0,-51.33459l10.57486,0l0,21.84652q1.37082,-3.60326 3.91662,-5.43799q2.55396,-1.84419 5.90756,-1.84419l0,0q3.23937,0 5.63013,1.44698q2.39893,1.43752 3.76158,4.24636q1.37082,2.8183 1.37082,7.07411l0,0l0,24.0028l-10.57486,0l0,-20.61706q0,-3.89644 -1.20762,-5.37178q-1.21578,-1.47535 -3.20673,-1.47535l0,0q-1.49321,0 -2.79875,0.86062q-1.30554,0.87008 -2.05622,2.74264q-0.74252,1.87256 -0.74252,4.89892l0,0l0,18.96202z" font-style="normal" path="M-244.1650390625 0C-122.08251953125 0 122.08251953125 0 244.1650390625 0" font-weight="700" y="0" x="0" font-scale="contain" font-family="Work Sans" space="preserve" dy="0" dx="0" offset="0.5" side="left" letter-spacing="3" font-size="100" text-anchor="middle" text="Aeraki Mesh" fill="rgba(255,255,255,0.97)" id="_AYvwbDQQ_P5-AJqsfVBLp"/>
 </g>
</svg>